<?xml version="1.0" encoding="UTF-8"?>
<svg version="1.1" xmlns="http://www.w3.org/2000/svg" width="475" height="525">
<path d="M0 0 C1.01549927 -0.01377686 1.01549927 -0.01377686 2.05151367 -0.02783203 C8.67937577 0.01279481 13.72399471 2.04597068 19.48828125 5.15625 C20.55433594 5.72988281 21.62039063 6.30351563 22.71875 6.89453125 C23.8428125 7.50683594 24.966875 8.11914062 26.125 8.75 C27.30596181 9.38937423 28.48695165 10.02869667 29.66796875 10.66796875 C36.62434902 14.44598121 43.4858953 18.35235355 50.2722168 22.42651367 C57.64672602 26.81755778 65.23024093 30.81463555 72.79882812 34.85839844 C83.03394065 40.33831214 93.13205346 46.04299651 103.22265625 51.78320312 C107.07230891 53.96351168 110.94102136 56.10875709 114.8125 58.25 C121.58738114 61.99835975 128.32849564 65.80374206 135.0625 69.625 C142.72934073 73.97491255 150.43540384 78.24152953 158.1875 82.4375 C165.58592063 86.44352852 172.88184168 90.5843578 180.11474609 94.88134766 C186.88812688 98.90350253 193.77065072 102.68092444 200.76953125 106.296875 C231.6283254 122.29721231 231.6283254 122.29721231 236.8125 134.25 C237.06665033 136.37906814 237.06665033 136.37906814 237.07256222 138.71789169 C237.0831606 140.0600615 237.0831606 140.0600615 237.0939731 141.42934585 C237.09155802 142.40832029 237.08914293 143.38729473 237.08665466 144.39593506 C237.09189134 145.43909764 237.09712802 146.48226021 237.10252339 147.55703378 C237.11756371 151.0637771 237.11822943 154.57037503 237.11889648 158.07714844 C237.12651529 160.58689624 237.1349423 163.09664169 237.14411926 165.60638428 C237.16609959 172.43291981 237.17488968 179.25940478 237.17994571 186.08597088 C237.18320322 190.34951681 237.18972605 194.61305372 237.1969471 198.87659454 C237.21651319 210.68399134 237.23291718 222.49137974 237.23582363 234.29879379 C237.2360112 235.05434929 237.23619877 235.80990479 237.23639202 236.58835591 C237.23675827 238.12001816 237.23712197 239.65168041 237.23748314 241.18334267 C237.23766595 241.94365013 237.23784876 242.7039576 237.23803711 243.48730469 C237.23830793 244.62916003 237.23830793 244.62916003 237.23858423 245.79408315 C237.24212526 258.12663522 237.26914309 270.45901261 237.306535 282.79150411 C237.34462841 295.45685773 237.36398119 308.12212469 237.36428314 320.78753686 C237.36486751 327.89720002 237.37334556 335.00665485 237.40228081 342.11626434 C237.42937475 348.80416507 237.4306908 355.49158381 237.41462517 362.17954254 C237.41280716 364.63373208 237.41953289 367.08794511 237.43544388 369.54208374 C237.45584932 372.89392271 237.44538331 376.24431016 237.42723083 379.59613037 C237.4404308 380.56618192 237.45363077 381.53623348 237.46723074 382.53568053 C237.37684229 389.84850883 235.25884978 394.56441606 230.274023 399.89527297 C225.40075475 404.60475254 219.18994323 407.57120829 213.26400757 410.73959351 C210.00735584 412.48153574 206.76594999 414.25144911 203.5234375 416.01953125 C202.8683873 416.37598221 202.2133371 416.73243317 201.53843689 417.09968567 C195.45241105 420.42222442 189.46863571 423.90878791 183.5 427.4375 C173.55157892 433.3030671 163.45072744 438.84073895 153.27734375 444.3046875 C146.82640493 447.77069852 140.45009024 451.36019301 134.07910156 454.97021484 C129.31138343 457.66219874 124.52884472 460.32783688 119.75 463 C110.64572722 468.09414706 101.55696794 473.21492865 92.47827148 478.35449219 C84.38241409 482.93477875 76.26678974 487.47926759 68.1484375 492.01953125 C61.19280031 495.91158134 54.2488226 499.82364423 47.3125 503.75 C43.47976535 505.91772715 39.64638706 508.0843117 35.8125 510.25 C34.69552734 510.88099609 33.57855469 511.51199219 32.42773438 512.16210938 C28.97469901 514.11170694 25.51869738 516.05601333 22.0625 518 C20.98419922 518.60908203 19.90589844 519.21816406 18.79492188 519.84570312 C17.29541992 520.6877832 17.29541992 520.6877832 15.765625 521.546875 C14.43772949 522.29469238 14.43772949 522.29469238 13.08300781 523.05761719 C5.78502977 526.89023275 -3.25978094 526.93036735 -11.1875 525.25 C-19.27201496 522.15957351 -26.67116371 517.57649291 -34.06591797 513.12646484 C-37.7141098 510.93344104 -41.40783964 508.83093234 -45.11279297 506.73583984 C-47.65920159 505.29312242 -50.19528091 503.83342506 -52.73046875 502.37109375 C-58.93103515 498.80911493 -65.18291572 495.34099525 -71.4375 491.875 C-89.12990638 482.0684091 -106.77940454 472.18804992 -124.37939453 462.21655273 C-131.83459503 457.99933439 -139.32014159 453.83827288 -146.8125 449.6875 C-155.64573777 444.79334158 -164.44052991 439.84045731 -173.19580078 434.80834961 C-180.32278329 430.72167708 -187.50130795 426.73143008 -194.6875 422.75 C-196.97659256 421.47531439 -199.26565539 420.20057541 -201.5546875 418.92578125 C-205.77286684 416.57928897 -210.00620629 414.26575955 -214.2578125 411.98046875 C-216.10956989 410.96650167 -217.96114341 409.9521987 -219.8125 408.9375 C-221.04516602 408.29167969 -221.04516602 408.29167969 -222.30273438 407.6328125 C-224.71455089 406.29623924 -226.92660729 404.82852304 -229.1875 403.25 C-229.97018816 402.72033032 -230.75287632 402.19066065 -231.5592823 401.64494038 C-236.24922048 397.60420112 -238.30849711 394.26035328 -239.01427841 388.16817284 C-239.45485282 381.49652062 -239.35894315 374.8252393 -239.28857422 368.14331055 C-239.2942246 365.56868905 -239.30376511 362.99407359 -239.31689453 360.41947937 C-239.3414232 354.16762425 -239.31808574 347.91683497 -239.27808069 341.66509523 C-239.23317502 334.38145403 -239.2351628 327.09804734 -239.23873176 319.8142961 C-239.24341632 306.81990404 -239.20435689 293.82601006 -239.14111328 280.83178711 C-239.07978991 268.22653236 -239.05152107 255.6217614 -239.05908203 243.01635742 C-239.06856327 227.0851964 -239.04956337 211.15432683 -239.0064198 195.22322178 C-238.99349602 190.14691202 -238.99069569 185.07065355 -238.99123764 179.99432945 C-238.99132063 173.16590802 -238.96374279 166.33804603 -238.91767883 159.50978279 C-238.90465424 157.00115285 -238.9001389 154.49246249 -238.90465164 151.9838028 C-238.90933323 148.56544526 -238.88335982 145.14867393 -238.84933472 141.73051453 C-238.85775985 140.73247148 -238.86618498 139.73442843 -238.87486541 138.70614165 C-238.76087111 131.96863019 -238.76087111 131.96863019 -235.79701424 128.25390339 C-234.93587454 127.59261527 -234.07473484 126.93132715 -233.1875 126.25 C-232.39085937 125.41082031 -231.59421875 124.57164063 -230.7734375 123.70703125 C-223.30297727 116.60896556 -213.46577815 111.67081273 -204.33837891 106.98901367 C-201.43449663 105.493159 -198.70888183 103.92936093 -195.9921875 102.109375 C-193.67827488 100.5753605 -191.91955076 99.62370678 -189.3125 98.8125 C-185.57458278 97.50458633 -182.44720517 95.70058529 -179.14453125 93.53125 C-176.86213333 92.03698549 -174.53217159 90.6449312 -172.1875 89.25 C-171.57817627 88.88342285 -170.96885254 88.5168457 -170.34106445 88.13916016 C-168.20992153 86.85787824 -166.07394716 85.58491499 -163.9375 84.3125 C-163.22464844 83.88259766 -162.51179688 83.45269531 -161.77734375 83.00976562 C-157.33184999 80.37050401 -152.85224228 78.10864775 -148.09277344 76.08740234 C-145.64762616 75.01271563 -143.45131526 73.66488454 -141.1875 72.25 C-139.77269445 71.47575602 -138.35579399 70.70533502 -136.9375 69.9375 C-133.75478027 68.18568898 -130.74184322 66.30987082 -127.75 64.25 C-123.82585054 61.57911293 -119.78007134 59.45616776 -115.51171875 57.390625 C-113.019714 56.16765796 -110.6219137 54.8121746 -108.2265625 53.41015625 C-104.38917496 51.22681506 -100.46901932 49.19274212 -96.56640625 47.12890625 C-93.39450085 45.36510683 -90.33183037 43.49639748 -87.26489258 41.55932617 C-83.78771712 39.36775349 -80.27521678 37.23819136 -76.75 35.125 C-76.05068359 34.69574219 -75.35136719 34.26648437 -74.63085938 33.82421875 C-70.25515605 31.21245827 -66.05936959 29.37255261 -61.15429688 27.97290039 C-57.95767497 26.79797519 -55.72944665 24.46744282 -53.1875 22.25 C-51.32687033 21.30336385 -49.46319742 20.36137574 -47.57421875 19.47265625 C-44.58137219 17.9394959 -41.78295527 16.16658295 -38.9375 14.375 C-33.6453987 11.06897867 -28.27199075 8.175265 -22.6484375 5.4765625 C-20.03098532 4.23614805 -20.03098532 4.23614805 -17.1875 2.25 C-11.43963299 0.49641345 -5.99287417 0.04530176 0 0 Z " fill="#0280CC" transform="translate(238.1875,-0.25)"/>
<path d="M0 0 C3.80917437 3.37685428 7.5084081 6.85847377 11.15380859 10.41064453 C11.69924316 10.92401367 12.24467773 11.43738281 12.80664062 11.96630859 C17.76469934 16.73308203 21.82925503 22.007643 25.90380859 27.53564453 C26.56251953 28.41607422 27.22123047 29.29650391 27.89990234 30.20361328 C34.32813419 38.84847679 34.32813419 38.84847679 36.15380859 42.41064453 C34.90709782 46.15077686 33.90046833 46.40555303 30.51708984 48.26611328 C29.55464355 48.80179932 28.59219727 49.33748535 27.60058594 49.8894043 C26.56627441 50.45328857 25.53196289 51.01717285 24.46630859 51.59814453 C22.33989325 52.77762786 20.21359063 53.95731445 18.08740234 55.13720703 C17.05728027 55.7047168 16.0271582 56.27222656 14.96582031 56.85693359 C11.63449162 58.69758091 8.32889244 60.57709636 5.02880859 62.47314453 C1.07806211 64.73753852 -2.87540662 66.99675878 -6.83447266 69.24658203 C-8.65100644 70.2802121 -10.46741034 71.31407045 -12.28369141 72.34814453 C-13.17958984 72.85772705 -14.07548828 73.36730957 -14.99853516 73.89233398 C-21.1762366 77.41963491 -27.29332801 81.03476426 -33.31665039 84.82055664 C-36.07537878 86.51985698 -37.53695002 87.41064453 -40.84619141 87.41064453 C-42.52978516 85.39892578 -42.52978516 85.39892578 -44.28369141 82.72314453 C-56.51222541 64.25723748 -76.39385484 52.3384173 -97.97509766 47.93408203 C-120.13762923 43.89356607 -143.2725323 47.02563222 -162.36962891 59.61767578 C-165.3090787 61.77503546 -168.08736701 64.02783768 -170.84619141 66.41064453 C-171.72662109 67.13123047 -172.60705078 67.85181641 -173.51416016 68.59423828 C-189.20263399 81.90926676 -200.08292977 102.85552072 -201.84619141 123.41064453 C-203.13479089 146.69117375 -199.04045262 168.97666878 -183.84619141 187.41064453 C-183.16943359 188.23693359 -182.49267578 189.06322266 -181.79541016 189.91455078 C-167.29976568 206.77893289 -148.06907368 217.89484654 -125.84619141 220.41064453 C-99.61850036 221.8487017 -76.17681847 216.05981469 -56.15429688 198.38452148 C-51.96369662 194.8261212 -51.96369662 194.8261212 -48.84619141 190.41064453 C-48.18619141 190.41064453 -47.52619141 190.41064453 -46.84619141 190.41064453 C-46.57033203 189.83830078 -46.29447266 189.26595703 -46.01025391 188.67626953 C-44.85151293 186.42100186 -43.57743435 184.30208075 -42.22119141 182.16064453 C-41.77517578 181.45423828 -41.32916016 180.74783203 -40.86962891 180.02001953 C-40.53189453 179.48892578 -40.19416016 178.95783203 -39.84619141 178.41064453 C-35.80830563 179.65420566 -32.27553819 181.13337523 -28.61572266 183.23876953 C-27.64699219 183.79177734 -26.67826172 184.34478516 -25.68017578 184.91455078 C-24.68308594 185.49076172 -23.68599609 186.06697266 -22.65869141 186.66064453 C-20.6865143 187.79168875 -18.7138592 188.92189991 -16.74072266 190.05126953 C-15.26454468 190.89625 -15.26454468 190.89625 -13.75854492 191.75830078 C-3.9358518 197.33127312 6.06576892 202.58506707 16.04077148 207.87890625 C23.53628188 211.85866294 30.93197902 215.94854474 38.15380859 220.41064453 C24.52778377 247.11257517 1.63975808 269.03874663 -23.84619141 284.41064453 C-24.76658203 284.98427734 -25.68697266 285.55791016 -26.63525391 286.14892578 C-57.10110716 304.66658052 -91.64766651 310.58413137 -126.84619141 309.41064453 C-127.95341553 309.38526611 -127.95341553 309.38526611 -129.08300781 309.359375 C-171.58095709 308.32602328 -213.66097771 285.32970322 -242.84619141 255.41064453 C-245.24574718 252.70316455 -247.51958112 249.94634499 -249.74462891 247.09423828 C-251.11871576 245.33959577 -252.53986051 243.62056294 -254.01025391 241.94580078 C-270.27757952 223.29298396 -280.16721134 199.31474813 -286.26806641 175.60107422 C-286.77790915 173.66935584 -287.352168 171.75488599 -287.93603516 169.84423828 C-294.89914587 143.57567899 -292.75879815 111.14098558 -284.84619141 85.41064453 C-284.64010254 84.71890137 -284.43401367 84.0271582 -284.22167969 83.31445312 C-278.56354434 64.47798308 -270.19970782 47.46425093 -258.84619141 31.41064453 C-258.4267627 30.81477539 -258.00733398 30.21890625 -257.57519531 29.60498047 C-231.8150747 -6.38416876 -191.03243195 -32.17818421 -147.48291016 -39.99951172 C-146.28279297 -40.19416016 -145.08267578 -40.38880859 -143.84619141 -40.58935547 C-142.65638672 -40.79431641 -141.46658203 -40.99927734 -140.24072266 -41.21044922 C-90.14446355 -48.73786639 -38.23708594 -32.91767118 0 0 Z " fill="#FCFDFE" transform="translate(351.84619140625,128.58935546875)"/>
<path d="M0 0 C1.57419556 2.12753122 2.91560017 4.16863744 4.25 6.4375 C8.09954502 12.68521287 12.25599402 18.38889978 17 24 C17.93904155 25.13652094 18.87782643 26.27325398 19.81640625 27.41015625 C47.68853965 60.8783436 89.91079013 83.75297208 133.5 87.75 C136.00272449 87.86362777 138.49607512 87.94260814 141 88 C142.39919678 88.04664795 142.39919678 88.04664795 143.82666016 88.09423828 C166.57153354 88.79326991 188.44111063 86.48898723 210 79 C211.03519775 78.65509521 211.03519775 78.65509521 212.09130859 78.30322266 C236.65577171 70.02161754 257.38710817 55.74001138 276 38 C276.84175781 37.22269531 277.68351562 36.44539063 278.55078125 35.64453125 C288.53802143 26.13514946 296.7101041 14.76114303 303.59765625 2.84375 C304.29181641 1.93109375 304.29181641 1.93109375 305 1 C308.63458664 1 310.2256917 2.03939629 313.375 3.8125 C314.77878906 4.59560547 314.77878906 4.59560547 316.2109375 5.39453125 C318.03287716 6.44329483 319.8423333 7.51413529 321.63671875 8.609375 C324.11358114 10.13861606 324.11358114 10.13861606 327.4375 11.4375 C330.95575377 12.98059376 333.81206499 14.87471 337 17 C339.30407818 18.10073371 341.62694522 19.05077809 344 20 C344 20.66 344 21.32 344 22 C346.31 22.66 348.62 23.32 351 24 C351 24.66 351 25.32 351 26 C351.70382812 26.09539062 352.40765625 26.19078125 353.1328125 26.2890625 C356.51299277 27.12719984 358.91255491 28.55136497 361.875 30.375 C366.18346495 32.96643833 370.34998504 35.12020672 375 37 C375.99 37.66 376.98 38.32 378 39 C378 39.66 378 40.32 378 41 C378.721875 41.12375 379.44375 41.2475 380.1875 41.375 C382.95721894 41.9904931 385.3970354 42.88444374 388 44 C387.0907839 49.46198204 383.28704502 51.86659815 379 55 C375.20101833 57.33463563 371.31303412 59.47254508 367.37606812 61.56503296 C364.13112841 63.29030102 360.90456567 65.04942753 357.67578125 66.8046875 C357.02382278 67.15804672 356.37186432 67.51140594 355.70014954 67.87547302 C349.61829457 71.18204568 343.64557995 74.6631982 337.6875 78.1875 C327.73923395 84.05331707 317.63821558 89.59074532 307.46484375 95.0546875 C301.01390493 98.52069852 294.63759024 102.11019301 288.26660156 105.72021484 C283.49888343 108.41219874 278.71634472 111.07783688 273.9375 113.75 C264.83322722 118.84414706 255.74446794 123.96492865 246.66577148 129.10449219 C238.56991409 133.68477875 230.45428974 138.22926759 222.3359375 142.76953125 C215.38030031 146.66158134 208.4363226 150.57364423 201.5 154.5 C197.66726535 156.66772715 193.83388706 158.8343117 190 161 C188.88302734 161.63099609 187.76605469 162.26199219 186.61523438 162.91210938 C183.16219901 164.86170694 179.70619738 166.80601333 176.25 168.75 C175.17169922 169.35908203 174.09339844 169.96816406 172.98242188 170.59570312 C171.98275391 171.15708984 170.98308594 171.71847656 169.953125 172.296875 C169.06786133 172.79541992 168.18259766 173.29396484 167.27050781 173.80761719 C159.97252977 177.64023275 150.92771906 177.68036735 143 176 C134.91548504 172.90957351 127.51633629 168.32649291 120.12158203 163.87646484 C116.4733902 161.68344104 112.77966036 159.58093234 109.07470703 157.48583984 C106.52829841 156.04312242 103.99221909 154.58342506 101.45703125 153.12109375 C95.25646485 149.55911493 89.00458428 146.09099525 82.75 142.625 C65.05759362 132.8184091 47.40809546 122.93804992 29.80810547 112.96655273 C22.35290497 108.74933439 14.86735841 104.58827288 7.375 100.4375 C-1.45823777 95.54334158 -10.25302991 90.59045731 -19.00830078 85.55834961 C-26.13528057 81.47167863 -33.3137144 77.48125756 -40.5 73.5 C-42.78781961 72.22666885 -45.07558068 70.95323252 -47.36328125 69.6796875 C-51.59678139 67.32494508 -55.84378112 64.9985885 -60.10546875 62.6953125 C-61.9663874 61.67231431 -63.82707808 60.64890127 -65.6875 59.625 C-66.51765625 59.18607422 -67.3478125 58.74714844 -68.203125 58.29492188 C-74.28695921 54.91222987 -78.90643978 50.65806315 -83 45 C-83 44.34 -83 43.68 -83 43 C-82.45214844 42.82726562 -81.90429688 42.65453125 -81.33984375 42.4765625 C-74.76840777 40.14717544 -69.43933322 36.76853501 -63.74414062 32.85058594 C-58.74719873 29.43492305 -53.61103303 26.50959487 -48.2421875 23.70703125 C-44.80585366 21.89778078 -41.42835067 19.99838968 -38.0625 18.0625 C-37.19467896 17.56363281 -37.19467896 17.56363281 -36.30932617 17.0546875 C-35.13390826 16.37845095 -33.95869763 15.70185398 -32.78369141 15.02490234 C-30.97710058 13.98684208 -29.16693875 12.95530084 -27.35546875 11.92578125 C-21.17820338 8.41302292 -15.03705469 4.85983037 -8.98828125 1.12890625 C-5.69313855 -0.74200974 -3.48537498 -1.61820981 0 0 Z " fill="#01549C" transform="translate(84,349)"/>
<path d="M0 0 C3.8826152 0.95474144 6.02615412 2.17543975 9.2734375 4.36328125 C12.52570866 6.37968937 15.93624399 8.0200756 19.375 9.6875 C25.68829172 12.76780528 31.72541974 16.14673886 37.67602539 19.87988281 C41.62265856 22.3313182 45.52610514 24.19041372 49.8125 25.9375 C50.4725 26.2675 51.1325 26.5975 51.8125 26.9375 C51.8125 27.5975 51.8125 28.2575 51.8125 28.9375 C52.53308594 29.04835938 53.25367188 29.15921875 53.99609375 29.2734375 C57.00486434 29.98285636 59.18710139 31.0462495 61.875 32.5625 C62.82117188 33.09359375 63.76734375 33.6246875 64.7421875 34.171875 C69.78027281 37.06909454 74.80675428 39.98472155 79.8125 42.9375 C79.17202602 46.38498958 77.81544981 48.78394185 75.875 51.6875 C75.35035156 52.48671875 74.82570313 53.2859375 74.28515625 54.109375 C73.79917969 54.71265625 73.31320312 55.3159375 72.8125 55.9375 C72.1525 55.9375 71.4925 55.9375 70.8125 55.9375 C70.57917969 56.50082031 70.34585938 57.06414062 70.10546875 57.64453125 C62.04950226 71.93109418 41.26577711 80.69328045 26.40625 84.90234375 C6.40115257 89.62093738 -14.65739123 87.90862852 -33.1875 78.9375 C-34.11175781 78.49535156 -35.03601563 78.05320312 -35.98828125 77.59765625 C-43.16514292 73.9330918 -49.17692778 69.27819165 -55.1875 63.9375 C-55.89777344 63.31101562 -56.60804688 62.68453125 -57.33984375 62.0390625 C-61.5009239 58.13341499 -64.89748468 53.82842535 -68.1875 49.1875 C-68.58598145 48.63223633 -68.98446289 48.07697266 -69.39501953 47.50488281 C-71.61406889 44.26308998 -72.1875 43.00389414 -72.1875 38.9375 C-70.2075 38.2775 -68.2275 37.6175 -66.1875 36.9375 C-66.1875 36.2775 -66.1875 35.6175 -66.1875 34.9375 C-62.45784861 32.90314469 -60.51844958 31.9375 -56.1875 31.9375 C-55.8575 30.9475 -55.5275 29.9575 -55.1875 28.9375 C-51.625 27.75 -51.625 27.75 -48.1875 26.9375 C-48.1875 26.2775 -48.1875 25.6175 -48.1875 24.9375 C-47.58164063 24.64617187 -46.97578125 24.35484375 -46.3515625 24.0546875 C-41.06163458 21.46669199 -35.98607113 18.68067354 -30.9609375 15.61328125 C-22.87519036 10.72766784 -14.67029827 6.09887273 -6.1875 1.9375 C-3.1875 -0.0625 -3.1875 -0.0625 0 0 Z " fill="#01549D" transform="translate(232.1875,263.0625)"/>
<path d="M0 0 C8.25 0 16.5 0 25 0 C25 8.58 25 17.16 25 26 C33.25 26 41.5 26 50 26 C50 34.25 50 42.5 50 51 C41.75 51 33.5 51 25 51 C25 59.25 25 67.5 25 76 C16.75 76 8.5 76 0 76 C0 67.75 0 59.5 0 51 C-8.25 51 -16.5 51 -25 51 C-25 42.75 -25 34.5 -25 26 C-16.75 26 -8.5 26 0 26 C0 17.42 0 8.84 0 0 Z " fill="#FCFDFD" transform="translate(325,224)"/>
<path d="M0 0 C8.25 0 16.5 0 25 0 C25 8.25 25 16.5 25 25 C33.25 25 41.5 25 50 25 C50 33.25 50 41.5 50 50 C41.75 50 33.5 50 25 50 C25 58.25 25 66.5 25 75 C16.75 75 8.5 75 0 75 C0 66.75 0 58.5 0 50 C-8.25 50 -16.5 50 -25 50 C-25 41.75 -25 33.5 -25 25 C-16.75 25 -8.5 25 0 25 C0 16.75 0 8.5 0 0 Z " fill="#FAFDFE" transform="translate(413,225)"/>
<path d="M0 0 C0.33 0 0.66 0 1 0 C1.02505615 0.59538574 1.0501123 1.19077148 1.07592773 1.80419922 C1.19177494 4.49469136 1.31455196 7.1848234 1.4375 9.875 C1.47681641 10.81214844 1.51613281 11.74929687 1.55664062 12.71484375 C1.59853516 13.61074219 1.64042969 14.50664062 1.68359375 15.4296875 C1.73858032 16.67081299 1.73858032 16.67081299 1.79467773 17.93701172 C1.88238327 20.06179429 1.88238327 20.06179429 3 22 C10.26 22 17.52 22 25 22 C25 22.66 25 23.32 25 24 C25.66 24 26.32 24 27 24 C27.19622046 28.12463416 27.38050216 32.24971573 27.5625 36.375 C27.61857422 37.550625 27.67464844 38.72625 27.73242188 39.9375 C27.78076172 41.05898438 27.82910156 42.18046875 27.87890625 43.3359375 C27.9260376 44.37282715 27.97316895 45.4097168 28.02172852 46.47802734 C28 49 28 49 27 51 C18.42 51 9.84 51 1 51 C1 58.92 1 66.84 1 75 C0.67 75 0.34 75 0 75 C0 66.75 0 58.5 0 50 C8.25 50 16.5 50 25 50 C25 41.75 25 33.5 25 25 C16.75 25 8.5 25 0 25 C0 16.75 0 8.5 0 0 Z " fill="#2782B8" transform="translate(350,225)"/>
<path d="M0 0 C8.25 0 16.5 0 25 0 C25 8.25 25 16.5 25 25 C16.75 25 8.5 25 0 25 C0.495 23.515 0.495 23.515 1 22 C7.93 22 14.86 22 22 22 C22.33 15.07 22.66 8.14 23 1 C15.41 1 7.82 1 0 1 C0 0.67 0 0.34 0 0 Z " fill="#D9F5FD" transform="translate(438,250)"/>
<path d="M0 0 C0.33 0 0.66 0 1 0 C1 8.58 1 17.16 1 26 C-1.7902667 26.9300889 -3.76529542 27.18698769 -6.66796875 27.31640625 C-7.56064453 27.35830078 -8.45332031 27.40019531 -9.37304688 27.44335938 C-10.30181641 27.48267578 -11.23058594 27.52199219 -12.1875 27.5625 C-13.12787109 27.60568359 -14.06824219 27.64886719 -15.03710938 27.69335938 C-17.35792854 27.79938665 -19.67885325 27.90145029 -22 28 C-22.06058594 29.08539063 -22.12117188 30.17078125 -22.18359375 31.2890625 C-22.26806064 32.73438486 -22.35270551 34.17969682 -22.4375 35.625 C-22.49647461 36.69427734 -22.49647461 36.69427734 -22.55664062 37.78515625 C-22.80309681 41.91803682 -23.23470053 45.92269024 -24 50 C-24.33 50 -24.66 50 -25 50 C-25 41.75 -25 33.5 -25 25 C-16.75 25 -8.5 25 0 25 C0 16.75 0 8.5 0 0 Z " fill="#2482BC" transform="translate(463,250)"/>
<path d="M0 0 C8.25 0 16.5 0 25 0 C25 8.58 25 17.16 25 26 C24.67 26 24.34 26 24 26 C24 18.08 24 10.16 24 2 C22.22625 2.165 20.4525 2.33 18.625 2.5 C13.00701367 3.02260338 7.72026793 3 2 3 C1.67 10.59 1.34 18.18 1 26 C0.67 26 0.34 26 0 26 C0 17.42 0 8.84 0 0 Z " fill="#C9EAF6" transform="translate(325,224)"/>
<path d="M0 0 C-2.68152444 1.4128543 -5.27372627 2.47313254 -8.17578125 3.33984375 C-18.32710557 6.4818012 -27.97907619 10.1381348 -37.5625 14.75 C-38.54323486 15.22171631 -39.52396973 15.69343262 -40.53442383 16.17944336 C-45.5461284 18.58334368 -45.5461284 18.58334368 -50.10522461 21.71582031 C-51.04313843 22.35148926 -51.04313843 22.35148926 -52 23 C-52.99 22.67 -53.98 22.34 -55 22 C-54.01 21.67 -53.02 21.34 -52 21 C-50.78130071 18.49552484 -50.78130071 18.49552484 -50 16 C-45.545 15.505 -45.545 15.505 -41 15 C-41 14.34 -41 13.68 -41 13 C-39.329375 12.319375 -39.329375 12.319375 -37.625 11.625 C-34.03800992 10.27534014 -34.03800992 10.27534014 -32 8 C-30.00822259 7.62061383 -28.00569659 7.29714023 -26 7 C-23.32033542 6.37827926 -20.66358124 5.68885722 -18 5 C-18 4.34 -18 3.68 -18 3 C-15.69 3 -13.38 3 -11 3 C-11 2.34 -11 1.68 -11 1 C-7.26562152 0.12132271 -3.83225427 -0.08912219 0 0 Z " fill="#1E81BB" transform="translate(197,90)"/>
<path d="M0 0 C7.92 0 15.84 0 24 0 C24 0.33 24 0.66 24 1 C16.41 1 8.82 1 1 1 C1.33 7.93 1.66 14.86 2 22 C9.26 22.33 16.52 22.66 24 23 C24.33 23.66 24.66 24.32 25 25 C16.75 25 8.5 25 0 25 C0 16.75 0 8.5 0 0 Z " fill="#D3F3FD" transform="translate(300,250)"/>
<path d="M0 0 C8.25 0 16.5 0 25 0 C25 8.25 25 16.5 25 25 C16.75 25 8.5 25 0 25 C0 24.67 0 24.34 0 24 C7.92 24 15.84 24 24 24 C23.505 14.1 23.505 14.1 23 4 C22.34 4 21.68 4 21 4 C21 3.01 21 2.02 21 1 C10.605 1.495 10.605 1.495 0 2 C0 1.34 0 0.68 0 0 Z " fill="#CFF1FD" transform="translate(350,250)"/>
<path d="M0 0 C0.33 0 0.66 0 1 0 C1.02505615 0.59538574 1.0501123 1.19077148 1.07592773 1.80419922 C1.19177494 4.49469136 1.31455196 7.1848234 1.4375 9.875 C1.47681641 10.81214844 1.51613281 11.74929687 1.55664062 12.71484375 C1.59853516 13.61074219 1.64042969 14.50664062 1.68359375 15.4296875 C1.73858032 16.67081299 1.73858032 16.67081299 1.79467773 17.93701172 C1.88238327 20.06179429 1.88238327 20.06179429 3 22 C10.26 22 17.52 22 25 22 C25 22.99 25 23.98 25 25 C16.75 25 8.5 25 0 25 C0 16.75 0 8.5 0 0 Z " fill="#2A8AC5" transform="translate(350,225)"/>
<path d="M0 0 C7.26 0 14.52 0 22 0 C18.95318939 2.03120707 18.39881676 2.24659875 14.98828125 2.1953125 C14.23095703 2.18886719 13.47363281 2.18242187 12.69335938 2.17578125 C11.90767578 2.15902344 11.12199219 2.14226562 10.3125 2.125 C9.51521484 2.11597656 8.71792969 2.10695312 7.89648438 2.09765625 C5.930861 2.07411585 3.96539225 2.03824547 2 2 C2.25801392 2.84933105 2.25801392 2.84933105 2.52124023 3.71582031 C3.03871416 6.18470661 2.94727759 8.04723036 2.66015625 10.546875 C2.56669922 11.39121094 2.47324219 12.23554688 2.37695312 13.10546875 C2.27318359 13.97816406 2.16941406 14.85085937 2.0625 15.75 C1.96259766 16.63816406 1.86269531 17.52632812 1.75976562 18.44140625 C1.51284599 20.62840871 1.25938365 22.81444667 1 25 C0.67 25 0.34 25 0 25 C0 16.75 0 8.5 0 0 Z " fill="#E7FDFE" transform="translate(413,225)"/>
<path d="M0 0 C1.20042952 3.80311669 0.45737819 6.34974941 -0.47949219 10.19091797 C-1.56967985 16.0744542 -1.48382043 22.09472183 -1.625 28.0625 C-1.66326971 29.4186424 -1.70232633 30.77476282 -1.7421875 32.13085938 C-1.83584107 35.42044104 -1.9215686 38.71002612 -2 42 C-3.65483712 39.0912992 -4.25545492 36.99494156 -4.265625 33.65625 C-4.26965332 32.82754395 -4.27368164 31.99883789 -4.27783203 31.14501953 C-4.26864746 30.27216309 -4.25946289 29.39930664 -4.25 28.5 C-4.24468262 27.60522949 -4.23936523 26.71045898 -4.23388672 25.78857422 C-4.10720049 16.91252027 -3.2422507 8.33721608 0 0 Z " fill="#1B7DB4" transform="translate(153,234)"/>
<path d="M0 0 C5.26122171 1.51031916 9.67232586 3.90374191 14.375 6.625 C15.47908203 7.25535156 15.47908203 7.25535156 16.60546875 7.8984375 C18.4063765 8.92752764 20.20357318 9.96310756 22 11 C22 11.33 22 11.66 22 12 C19.69 11.67 17.38 11.34 15 11 C15 10.34 15 9.68 15 9 C13.68 9.33 12.36 9.66 11 10 C11 10.66 11 11.32 11 12 C10.01 12.33 9.02 12.66 8 13 C8.33 11.02 8.66 9.04 9 7 C7.03533587 5.93224776 5.03144641 4.93446535 3 4 C2.01 4.495 2.01 4.495 1 5 C0.67 3.35 0.34 1.7 0 0 Z " fill="#0E7EC0" transform="translate(394,82)"/>
<path d="M0 0 C0.66 0 1.32 0 2 0 C1.36852177 3.33405693 0.60060354 6.57602321 -0.33984375 9.8359375 C-0.59830078 10.73570312 -0.85675781 11.63546875 -1.12304688 12.5625 C-1.52620117 13.9546875 -1.52620117 13.9546875 -1.9375 15.375 C-2.33485352 16.75558594 -2.33485352 16.75558594 -2.74023438 18.1640625 C-3.25557406 19.95432443 -3.7716587 21.74437213 -4.28857422 23.53417969 C-5.19842429 26.68774375 -6.10003538 29.84360234 -7 33 C-7.33 33 -7.66 33 -8 33 C-8.0828413 31.64692538 -8.14000368 30.29227589 -8.1875 28.9375 C-8.22230469 28.18339844 -8.25710937 27.42929688 -8.29296875 26.65234375 C-7.97553359 23.77849739 -7.02746651 21.56083523 -5.83081055 18.94702148 C-4.32835833 15.42599402 -3.35566154 11.74035352 -2.3125 8.0625 C-2.08755859 7.28326172 -1.86261719 6.50402344 -1.63085938 5.70117188 C-1.08322633 3.80193386 -0.54104051 1.90112655 0 0 Z " fill="#2683BD" transform="translate(71,196)"/>
<path d="M0 0 C0.33 0.99 0.66 1.98 1 3 C0.34 3 -0.32 3 -1 3 C-1.33 5.31 -1.66 7.62 -2 10 C-2.99 9.67 -3.98 9.34 -5 9 C-4.67 8.34 -4.34 7.68 -4 7 C-4.99 6.67 -5.98 6.34 -7 6 C-7.66 8.64 -8.32 11.28 -9 14 C-10.98 14 -12.96 14 -15 14 C-6.02112676 3.34507042 -6.02112676 3.34507042 0 0 Z " fill="#1582C4" transform="translate(15,118)"/>
<path d="M0 0 C5.28798182 0.41474367 8.11690718 1.35224614 12 5 C9.36 4.67 6.72 4.34 4 4 C4.66 5.32 5.32 6.64 6 8 C3 10 3 10 0 10 C0.33 8.02 0.66 6.04 1 4 C0.01 3.67 -0.98 3.34 -2 3 C-1.34 2.01 -0.68 1.02 0 0 Z " fill="#0F7EC1" transform="translate(244,0)"/>
<path d="M0 0 C0.99 0.33 1.98 0.66 3 1 C2.67 1.66 2.34 2.32 2 3 C1.01 3.33 0.02 3.66 -1 4 C-1.226875 4.66 -1.45375 5.32 -1.6875 6 C-2.3371875 6.99 -2.3371875 6.99 -3 8 C-5.7378361 8.49370815 -8.24898226 8.80011726 -11 9 C-12.67056149 9.31323028 -14.33958925 9.63678515 -16 10 C-14.4949321 6.9898642 -12.11973364 6.43632309 -9.125 5 C-5.91895555 3.45491834 -2.96387739 1.97591826 0 0 Z " fill="#135A98" transform="translate(328,412)"/>
<path d="M0 0 C0.33 1.32 0.66 2.64 1 4 C0.401875 4.144375 -0.19625 4.28875 -0.8125 4.4375 C-2.56150404 4.8872439 -4.28677023 5.42892341 -6 6 C-6.33 6.66 -6.66 7.32 -7 8 C-7 7.34 -7 6.68 -7 6 C-8.65 6.33 -10.3 6.66 -12 7 C-12 7.66 -12 8.32 -12 9 C-13.98 9.33 -15.96 9.66 -18 10 C-13.67630171 6.12358085 -6.04191557 0 0 0 Z " fill="#157EBC" transform="translate(169,32)"/>
<path d="M0 0 C6.46081213 0.11537165 11.52415068 1.81558316 17.375 4.375 C18.07689453 4.67929932 18.77878906 4.98359863 19.50195312 5.29711914 C22.82141231 6.79769109 25.68706167 8.1220691 28 11 C22.55652352 9.50965013 17.78673252 8.05819022 13 5 C8.70432413 3.31908335 4.57356933 2.54882832 0 2 C0 1.34 0 0.68 0 0 Z " fill="#1C7DBA" transform="translate(255,177)"/>
<path d="M0 0 C0.66 0.33 1.32 0.66 2 1 C2.61875 0.814375 3.2375 0.62875 3.875 0.4375 C6 0 6 0 10 2 C4.72 4.97 -0.56 7.94 -6 11 C-6 10.01 -6 9.02 -6 8 C-4.02 7.34 -2.04 6.68 0 6 C-0.185625 5.38125 -0.37125 4.7625 -0.5625 4.125 C-1 2 -1 2 0 0 Z " fill="#0B4F8E" transform="translate(268,506)"/>
<path d="M0 0 C8.8794871 4.34059295 17.64304739 8.69654931 26 14 C23.50907189 15.24546405 22.58919267 14.7767578 20 14 C20 13.34 20 12.68 20 12 C19.113125 11.731875 18.22625 11.46375 17.3125 11.1875 C14.21948994 10.07868507 11.79510781 8.69177578 9 7 C7.948125 6.7525 7.948125 6.7525 6.875 6.5 C4.52923435 5.87446249 3.61790218 4.76498419 2 3 C1.34 2.67 0.68 2.34 0 2 C0 1.34 0 0.68 0 0 Z " fill="#1F79B2" transform="translate(296,27)"/>
<path d="M0 0 C1.65 0 3.3 0 5 0 C0.74093983 5.72554976 -3.60280936 11.37992202 -8 17 C-8.33 16.34 -8.66 15.68 -9 15 C-8.0625 12.375 -8.0625 12.375 -7 10 C-6.01 10 -5.02 10 -4 10 C-3.67 8.35 -3.34 6.7 -3 5 C-2.01 5 -1.02 5 0 5 C0 3.35 0 1.7 0 0 Z " fill="#137EBF" transform="translate(101,144)"/>
<path d="M0 0 C1.98 0 3.96 0 6 0 C2.00627606 3.44313288 -2.16112054 5.84641636 -6.8125 8.25 C-7.85180664 8.79527344 -7.85180664 8.79527344 -8.91210938 9.3515625 C-10.6055689 10.23916887 -12.30244124 11.12025885 -14 12 C-14 11.01 -14 10.02 -14 9 C-13.01 9 -12.02 9 -11 9 C-11 8.34 -11 7.68 -11 7 C-10.01 7 -9.02 7 -8 7 C-8 6.34 -8 5.68 -8 5 C-5.09399739 3.74335022 -3.20395416 3 0 3 C0 2.01 0 1.02 0 0 Z " fill="#0E4F8C" transform="translate(330,474)"/>
<path d="M0 0 C1.65 0 3.3 0 5 0 C5 0.66 5 1.32 5 2 C7.31 2.33 9.62 2.66 12 3 C12 3.66 12 4.32 12 5 C13.65 5 15.3 5 17 5 C17 5.66 17 6.32 17 7 C16.34 7 15.68 7 15 7 C14.67 7.66 14.34 8.32 14 9 C7.07 5.04 7.07 5.04 0 1 C0 0.67 0 0.34 0 0 Z " fill="#1A81C3" transform="translate(351,327)"/>
<path d="M0 0 C0.33 0.99 0.66 1.98 1 3 C-3.75 6 -3.75 6 -6 6 C-6.2475 6.639375 -6.495 7.27875 -6.75 7.9375 C-8 10 -8 10 -10.125 10.75 C-11.053125 10.87375 -11.053125 10.87375 -12 11 C-9.45174035 6.18662066 -5.86485765 0 0 0 Z " fill="#1581C3" transform="translate(180,197)"/>
<path d="M0 0 C0.78375 0.185625 1.5675 0.37125 2.375 0.5625 C4.97089775 1.25962266 4.97089775 1.25962266 7 0 C10.67230705 3.07999946 11.56802365 5.2482602 12 10 C3.55353075 3.84965831 3.55353075 3.84965831 0 0 Z " fill="#1984C2" transform="translate(341,120)"/>
<path d="M0 0 C-1.65 0.33 -3.3 0.66 -5 1 C-5 1.66 -5 2.32 -5 3 C-5.66 3 -6.32 3 -7 3 C-7.66 4.32 -8.32 5.64 -9 7 C-11.64 7 -14.28 7 -17 7 C-13.32361216 3.56870468 -5.1184386 -2.5592193 0 0 Z " fill="#1B81BE" transform="translate(91,78)"/>
<path d="M0 0 C-2.8208715 3.31867235 -6.10280211 5.1539589 -10 7 C-12.4375 6.25 -12.4375 6.25 -14 5 C-13.67 4.34 -13.34 3.68 -13 3 C-12.34 3 -11.68 3 -11 3 C-10.67 2.34 -10.34 1.68 -10 1 C-6.52674819 -0.1577506 -3.63932552 -0.06866652 0 0 Z " fill="#094E92" transform="translate(311,488)"/>
<path d="M0 0 C2.64 0 5.28 0 8 0 C5.07096942 2.33364352 2.11431797 4.04960836 -1.25 5.6875 C-2.58804687 6.34298828 -2.58804687 6.34298828 -3.953125 7.01171875 C-4.62859375 7.33785156 -5.3040625 7.66398437 -6 8 C-6.33 7.01 -6.66 6.02 -7 5 C-6.01 5 -5.02 5 -4 5 C-4 4.34 -4 3.68 -4 3 C-2.68 2.67 -1.36 2.34 0 2 C0 1.34 0 0.68 0 0 Z " fill="#0C528F" transform="translate(343,466)"/>
<path d="M0 0 C0 0.66 0 1.32 0 2 C-1.0725 2.0825 -2.145 2.165 -3.25 2.25 C-7.02582073 2.63633216 -7.02582073 2.63633216 -9 5.0625 C-11 7 -11 7 -14.75 7.25 C-15.8225 7.1675 -16.895 7.085 -18 7 C-17.01 6.34 -16.02 5.68 -15 5 C-14.05125 4.319375 -13.1025 3.63875 -12.125 2.9375 C-7.82969343 0.27440993 -5.00456131 0 0 0 Z " fill="#2383BB" transform="translate(230,1)"/>
<path d="M0 0 C0.99101043 3.10563128 0.95875336 5.05235896 0.125 8.1875 C-1.0058719 12.78739787 -1.55106675 17.28620087 -2 22 C-2.66 22 -3.32 22 -4 22 C-3.7161296 19.45724602 -3.42316578 16.91608446 -3.125 14.375 C-3.04636719 13.66214844 -2.96773437 12.94929687 -2.88671875 12.21484375 C-2.37424854 7.91797815 -1.53115573 4.078793 0 0 Z " fill="#3186BE" transform="translate(153,234)"/>
<path d="M0 0 C1.53445094 3.06890187 0.54984289 5.70094266 0 9 C-0.66 9 -1.32 9 -2 9 C-2.268125 9.639375 -2.53625 10.27875 -2.8125 10.9375 C-4 13 -4 13 -7 14 C-5.53967505 8.68972746 -3.01679014 4.53669968 0 0 Z " fill="#D9F3FB" transform="translate(86,171)"/>
<path d="M0 0 C8.02386726 0.40799325 14.62364642 2.91036813 22 6 C22 6.66 22 7.32 22 8 C14.60606981 5.84071065 7.29582259 3.4695482 0 1 C0 0.67 0 0.34 0 0 Z " fill="#368CBF" transform="translate(286,93)"/>
<path d="M0 0 C3.80978966 0.67231582 7.33444202 1.77814734 11 3 C11.66 3 12.32 3 13 3 C13.33 4.65 13.66 6.3 14 8 C9.02790438 6.23570801 4.56561939 3.6060834 0 1 C0 0.67 0 0.34 0 0 Z " fill="#1B82BC" transform="translate(311,305)"/>
<path d="M0 0 C4.06498881 1.37184347 6.67396561 3.22068459 9.8125 6.125 C10.99779297 7.21167969 10.99779297 7.21167969 12.20703125 8.3203125 C12.79871094 8.87460938 13.39039063 9.42890625 14 10 C13.01 10.33 12.02 10.66 11 11 C7.92385037 8.89921489 6.07585603 7.11378405 4 4 C1.94996045 2.80767387 1.94996045 2.80767387 0 2 C0 1.34 0 0.68 0 0 Z " fill="#1A7EBC" transform="translate(283,188)"/>
<path d="M0 0 C0.53625 0.144375 1.0725 0.28875 1.625 0.4375 C4.39915827 1.09453748 7.18525388 1.55219948 10 2 C10.33 2.99 10.66 3.98 11 5 C12.65 5.33 14.3 5.66 16 6 C16 6.99 16 7.98 16 9 C10.31497465 7.35433477 5.23318364 4.70967216 0 2 C0 1.34 0 0.68 0 0 Z " fill="#2787C0" transform="translate(310,101)"/>
<path d="M0 0 C2.64752004 2.57784846 4.94432065 4.91648098 7 8 C3.7 7.34 0.4 6.68 -3 6 C-2.01 4.02 -1.02 2.04 0 0 Z " fill="#2085C6" transform="translate(299,200)"/>
<path d="M0 0 C0.33 1.32 0.66 2.64 1 4 C-3.296875 8.00390625 -3.296875 8.00390625 -5 9 C-6.32 8.67 -7.64 8.34 -9 8 C-6.03 5.36 -3.06 2.72 0 0 Z " fill="#145895" transform="translate(355,392)"/>
<path d="M0 0 C0.66 0.33 1.32 0.66 2 1 C-0.73056995 5.22797927 -0.73056995 5.22797927 -3 7 C-6.06437568 7.52268615 -8.92228147 7.36208453 -12 7 C-9 5 -9 5 -5.4375 3.5 C-2.00994231 2.25346749 -2.00994231 2.25346749 0 0 Z " fill="#2481BA" transform="translate(57,94)"/>
<path d="M0 0 C0 0.66 0 1.32 0 2 C-0.61875 2.0825 -1.2375 2.165 -1.875 2.25 C-4.17469437 2.78131326 -4.17469437 2.78131326 -4.9375 4.9375 C-6 7 -6 7 -8.375 8.3125 C-11.10579853 9.02770914 -12.39189261 8.9659657 -15 8 C-14.154375 7.608125 -13.30875 7.21625 -12.4375 6.8125 C-9.80028705 5.42196954 -7.62425459 4.06457047 -5.25 2.3125 C-2 0 -2 0 0 0 Z " fill="#1F81B9" transform="translate(74,85)"/>
<path d="M0 0 C5.31027254 1.46032495 9.46330032 3.98320986 14 7 C13.01 7.495 13.01 7.495 12 8 C9.61961379 7.07626804 7.38280104 5.94216155 5.09375 4.8125 C4.4028125 4.544375 3.711875 4.27625 3 4 C2.01 4.495 2.01 4.495 1 5 C0.67 3.35 0.34 1.7 0 0 Z " fill="#177DB7" transform="translate(394,82)"/>
<path d="M0 0 C-4.62 2.64 -9.24 5.28 -14 8 C-14.33 7.34 -14.66 6.68 -15 6 C-13.35 5.34 -11.7 4.68 -10 4 C-10 3.34 -10 2.68 -10 2 C-8.68 2 -7.36 2 -6 2 C-6 1.34 -6 0.68 -6 0 C-3 -1 -3 -1 0 0 Z " fill="#0F4E86" transform="translate(411,433)"/>
<path d="M0 0 C1.32 0.33 2.64 0.66 4 1 C2.4050992 2.19991599 0.79873853 3.38461318 -0.8125 4.5625 C-1.70582031 5.22378906 -2.59914063 5.88507813 -3.51953125 6.56640625 C-4.33808594 7.03949219 -5.15664063 7.51257813 -6 8 C-6.99 7.67 -7.98 7.34 -9 7 C-8.34 7 -7.68 7 -7 7 C-6.7525 6.360625 -6.505 5.72125 -6.25 5.0625 C-5 3 -5 3 -2.9375 2.375 C-2.298125 2.25125 -1.65875 2.1275 -1 2 C-0.67 1.34 -0.34 0.68 0 0 Z " fill="#165792" transform="translate(288,330)"/>
<path d="M0 0 C5.169545 1.40987591 8.75341352 4.86322045 12 9 C12.703125 11.2265625 12.703125 11.2265625 13 13 C12.34 12.67 11.68 12.34 11 12 C11 11.34 11 10.68 11 10 C10.34 10 9.68 10 9 10 C8.401875 9.21625 7.80375 8.4325 7.1875 7.625 C4.87559356 4.85071227 3.39491889 4.03733633 0 3 C0 2.01 0 1.02 0 0 Z " fill="#1779B4" transform="translate(460,119)"/>
<path d="M0 0 C1.79646436 0.92827339 3.58703557 1.86795838 5.375 2.8125 C6.37273437 3.33457031 7.37046875 3.85664063 8.3984375 4.39453125 C11 6 11 6 13 9 C12.01 9.495 12.01 9.495 11 10 C11 9.34 11 8.68 11 8 C9.9275 7.7525 8.855 7.505 7.75 7.25 C3.99533716 5.99844572 2.3997172 5.07163802 0 2 C0 1.34 0 0.68 0 0 Z " fill="#195792" transform="translate(138,408)"/>
<path d="M0 0 C4.95 2.64 9.9 5.28 15 8 C11.23375329 9.25541557 9.62811066 8.37061958 6 7 C6 6.34 6 5.68 6 5 C5.195625 4.731875 4.39125 4.46375 3.5625 4.1875 C2.716875 3.795625 1.87125 3.40375 1 3 C0.67 2.01 0.34 1.02 0 0 Z " fill="#D7F4FD" transform="translate(330,316)"/>
<path d="M0 0 C0.66 0 1.32 0 2 0 C1.63636795 2.57798841 1.40466367 3.69164073 -0.70703125 5.30078125 C-1.40183594 5.63464844 -2.09664062 5.96851562 -2.8125 6.3125 C-3.49957031 6.65925781 -4.18664062 7.00601563 -4.89453125 7.36328125 C-7.34106905 8.10314333 -8.61786119 7.82973374 -11 7 C-10.37351562 6.66226563 -9.74703125 6.32453125 -9.1015625 5.9765625 C-8.28429687 5.53054687 -7.46703125 5.08453125 -6.625 4.625 C-5.40683594 3.96371094 -5.40683594 3.96371094 -4.1640625 3.2890625 C-1.89185698 2.0556107 -1.89185698 2.0556107 0 0 Z " fill="#2285C1" transform="translate(108,65)"/>
<path d="M0 0 C0.99 0 1.98 0 3 0 C1.50902342 3.7952131 -0.75700849 5.61042731 -4 8 C-4.625 5.625 -4.625 5.625 -5 3 C-4.34 2.34 -3.68 1.68 -3 1 C-3 1.99 -3 2.98 -3 4 C-2.34 4 -1.68 4 -1 4 C-0.67 2.68 -0.34 1.36 0 0 Z " fill="#175B96" transform="translate(299,320)"/>
<path d="M0 0 C3.77968573 0.77023007 5.47959631 2.02952423 8 5 C8 5.66 8 6.32 8 7 C8.66 7 9.32 7 10 7 C10.33 8.65 10.66 10.3 11 12 C7.08060535 8.19588166 3.50897269 4.18423892 0 0 Z " fill="#197EBD" transform="translate(363,139)"/>
<path d="M0 0 C6.18160604 0.53753096 11.326858 2.54582388 17 5 C17 5.33 17 5.66 17 6 C12.21907386 6.33355299 9.97120836 5.58128543 6 3 C4.01548229 2.28856912 2.01797888 1.61008664 0 1 C0 0.67 0 0.34 0 0 Z " fill="#DCF6FD" transform="translate(289,95)"/>
<path d="M0 0 C1.79398267 0.95399078 3.58511655 1.91334026 5.375 2.875 C6.37273437 3.40867187 7.37046875 3.94234375 8.3984375 4.4921875 C11 6 11 6 13 8 C8.39146203 7.27991594 4.32762591 5.68704061 0 4 C0 2.68 0 1.36 0 0 Z " fill="#187FB8" transform="translate(275,15)"/>
<path d="M0 0 C1.98270912 0.95098266 3.96108379 1.91100703 5.9375 2.875 C7.03964844 3.40867187 8.14179688 3.94234375 9.27734375 4.4921875 C12 6 12 6 13 8 C10.98177083 7.70703125 8.96354167 7.4140625 6.9453125 7.12109375 C4.91859333 6.8315703 4.91859333 6.8315703 3 8 C2.87625 7.195625 2.7525 6.39125 2.625 5.5625 C2.315625 4.2940625 2.315625 4.2940625 2 3 C1.34 2.67 0.68 2.34 0 2 C0 1.34 0 0.68 0 0 Z " fill="#167AB8" transform="translate(257,5)"/>
<path d="M0 0 C-4.62 2.64 -9.24 5.28 -14 8 C-14.33 7.34 -14.66 6.68 -15 6 C-14.34 6 -13.68 6 -13 6 C-13 5.34 -13 4.68 -13 4 C-11.68 4 -10.36 4 -9 4 C-8.67 3.01 -8.34 2.02 -8 1 C-2.59770115 -1.29885057 -2.59770115 -1.29885057 0 0 Z " fill="#0F4C85" transform="translate(393,443)"/>
<path d="M0 0 C3.26008643 3.16952847 6.22237877 6.39937989 9 10 C7.0625 9.625 7.0625 9.625 5 9 C4.67 8.34 4.34 7.68 4 7 C1.97536745 6.34786708 1.97536745 6.34786708 0 6 C0 4.02 0 2.04 0 0 Z " fill="#24619E" transform="translate(100,373)"/>
<path d="M0 0 C3.7910119 1.44950455 7.3874638 3.15172566 11 5 C10.67 5.66 10.34 6.32 10 7 C9.34 7 8.68 7 8 7 C8 6.34 8 5.68 8 5 C6.35 5.33 4.7 5.66 3 6 C3 5.34 3 4.68 3 4 C2.34 4 1.68 4 1 4 C0.67 2.68 0.34 1.36 0 0 Z " fill="#DFF4FC" transform="translate(188,336)"/>
<path d="M0 0 C0.66 0.33 1.32 0.66 2 1 C0.68 3.97 -0.64 6.94 -2 10 C-3.98 10 -5.96 10 -8 10 C-7.59007812 9.52949219 -7.18015625 9.05898437 -6.7578125 8.57421875 C-6.21898437 7.95160156 -5.68015625 7.32898438 -5.125 6.6875 C-4.59132813 6.07261719 -4.05765625 5.45773438 -3.5078125 4.82421875 C-1.8359553 2.86501788 -1.8359553 2.86501788 0 0 Z " fill="#2885BD" transform="translate(8,122)"/>
<path d="M0 0 C0.598125 0.20625 1.19625 0.4125 1.8125 0.625 C0.8225 1.12 0.8225 1.12 -0.1875 1.625 C-0.1875 2.285 -0.1875 2.945 -0.1875 3.625 C0.4725 3.625 1.1325 3.625 1.8125 3.625 C2.1425 4.615 2.4725 5.605 2.8125 6.625 C-0.56253669 5.4391763 -2.83472731 4.34926311 -5.1875 1.625 C-2.1875 -0.375 -2.1875 -0.375 0 0 Z " fill="#085293" transform="translate(45.1875,417.375)"/>
<path d="M0 0 C0 3 0 3 -2 6 C-2.66 6 -3.32 6 -4 6 C-4.2475 6.639375 -4.495 7.27875 -4.75 7.9375 C-6 10 -6 10 -8.078125 10.62890625 C-9.02945313 10.81259766 -9.02945313 10.81259766 -10 11 C-6.79239749 7.19364503 -3.59253891 3.45436433 0 0 Z " fill="#E0FAFE" transform="translate(117,133)"/>
<path d="M0 0 C1.94113934 0.92994117 3.8777951 1.8692453 5.8125 2.8125 C6.89144531 3.33457031 7.97039062 3.85664062 9.08203125 4.39453125 C11.56579702 5.76110117 13.1799378 6.87340101 15 9 C11.84759426 8.27252175 8.84593551 7.3121563 5.8125 6.1875 C4.93207031 5.87167969 4.05164063 5.55585937 3.14453125 5.23046875 C1 4 1 4 0.19921875 1.86328125 C0.13347656 1.24839844 0.06773437 0.63351563 0 0 Z " fill="#207AB1" transform="translate(336,49)"/>
<path d="M0 0 C1.98 0 3.96 0 6 0 C6 0.66 6 1.32 6 2 C8.475 2.99 8.475 2.99 11 4 C10.34 4.66 9.68 5.32 9 6 C6.03 4.35 3.06 2.7 0 1 C0 0.67 0 0.34 0 0 Z " fill="#0D4D8C" transform="translate(216,518)"/>
<path d="M0 0 C0.99 1.98 1.98 3.96 3 6 C-0.77545388 4.90931332 -3.47043472 4.0916909 -6 1 C-3 0 -3 0 0 0 Z " fill="#0E528F" transform="translate(206,508)"/>
<path d="M0 0 C0 0.99 0 1.98 0 3 C-2.98055586 5.42603384 -5.00323092 6.91332443 -8.875 7.25 C-9.57625 7.1675 -10.2775 7.085 -11 7 C-7.53258866 4.04250209 -4.13126473 1.92151848 0 0 Z " fill="#2686BF" transform="translate(347,196)"/>
<path d="M0 0 C0 0.66 0 1.32 0 2 C-1.55966592 2.36644578 -3.12292651 2.71760862 -4.6875 3.0625 C-5.55761719 3.25972656 -6.42773438 3.45695312 -7.32421875 3.66015625 C-10.16001276 4.02032279 -12.24789982 3.70909969 -15 3 C-10.25420243 0.26203987 -5.40112241 -0.15885654 0 0 Z " fill="#C7EBF8" transform="translate(208,89)"/>
<path d="M0 0 C0 4.07605096 -1.55272534 6.7838181 -4 10 C-6.25 10.9375 -6.25 10.9375 -8 11 C-5.50127818 7.1626772 -2.9156164 3.54039134 0 0 Z " fill="#1B5A90" transform="translate(381,363)"/>
<path d="M0 0 C0.33 2.31 0.66 4.62 1 7 C-2.465 5.02 -2.465 5.02 -6 3 C-3.375 0 -3.375 0 0 0 Z " fill="#195D99" transform="translate(191,331)"/>
<path d="M0 0 C3.96 1.98 7.92 3.96 12 6 C10 7 10 7 7.87109375 6.328125 C7.06800781 5.97234375 6.26492188 5.6165625 5.4375 5.25 C4.22900391 4.73179687 4.22900391 4.73179687 2.99609375 4.203125 C1 3 1 3 0 0 Z " fill="#2782BC" transform="translate(271,181)"/>
<path d="M0 0 C1.32 1.32 2.64 2.64 4 4 C-0.05431692 5.15837626 -2.21812119 4.83691257 -6 3 C-3 1 -3 1 0 0 Z " fill="#1884C4" transform="translate(128,55)"/>
<path d="M0 0 C0 0.99 0 1.98 0 3 C-3.375 3.1875 -3.375 3.1875 -7 3 C-7.66 2.01 -8.32 1.02 -9 0 C-5.67465243 -1.10844919 -3.37817425 -0.84454356 0 0 Z " fill="#115CA1" transform="translate(305,427)"/>
<path d="M0 0 C1.65 1.32 3.3 2.64 5 4 C4.67 5.32 4.34 6.64 4 8 C2 6.8125 2 6.8125 0 5 C-0.25 2.3125 -0.25 2.3125 0 0 Z " fill="#084F8F" transform="translate(108,383)"/>
<path d="M0 0 C0.99 0 1.98 0 3 0 C3 0.66 3 1.32 3 2 C3.66 2.33 4.32 2.66 5 3 C4.67 3.66 4.34 4.32 4 5 C1.6875 5.25 1.6875 5.25 -1 5 C-2.8125 3 -2.8125 3 -4 1 C-2.02 1.99 -2.02 1.99 0 3 C0 2.01 0 1.02 0 0 Z " fill="#095191" transform="translate(185,328)"/>
<path d="M0 0 C-1 2 -1 2 -3.28515625 2.8515625 C-4.65994141 3.23441406 -4.65994141 3.23441406 -6.0625 3.625 C-6.98160156 3.88539062 -7.90070312 4.14578125 -8.84765625 4.4140625 C-9.55792969 4.60742188 -10.26820312 4.80078125 -11 5 C-4.83050847 -1.61016949 -4.83050847 -1.61016949 0 0 Z " fill="#1B7EBB" transform="translate(27,113)"/>
<path d="M0 0 C0.66 0.33 1.32 0.66 2 1 C-0.35514485 4.53271727 -2.10064011 5.44025604 -6 7 C-8.375 6.6875 -8.375 6.6875 -10 6 C-9.0925 5.566875 -8.185 5.13375 -7.25 4.6875 C-4.56781551 3.29482729 -2.33860395 1.88887243 0 0 Z " fill="#2982B8" transform="translate(43,101)"/>
<path d="M0 0 C1.32 0.66 2.64 1.32 4 2 C4 3.32 4 4.64 4 6 C1.08482708 4.92598892 -0.77810176 4.22189824 -3 2 C-2.01 1.34 -1.02 0.68 0 0 Z " fill="#0B5392" transform="translate(76,436)"/>
<path d="M0 0 C1.32 0.33 2.64 0.66 4 1 C0.535 3.97 0.535 3.97 -3 7 C-3.33 5.35 -3.66 3.7 -4 2 C-2.68 2.33 -1.36 2.66 0 3 C0 2.01 0 1.02 0 0 Z " fill="#2583BC" transform="translate(109,137)"/>
<path d="M0 0 C2.0625 0.4375 2.0625 0.4375 4 1 C4 1.66 4 2.32 4 3 C5.32 3.33 6.64 3.66 8 4 C8 4.66 8 5.32 8 6 C4.22454612 4.90931332 1.52956528 4.0916909 -1 1 C-0.67 0.67 -0.34 0.34 0 0 Z " fill="#0F528F" transform="translate(142,475)"/>
<path d="M0 0 C0.33 1.32 0.66 2.64 1 4 C-0.32 4.33 -1.64 4.66 -3 5 C-3.66 3.68 -4.32 2.36 -5 1 C-2 0 -2 0 0 0 Z " fill="#0A5AA0" transform="translate(6,391)"/>
<path d="M0 0 C0 0.66 0 1.32 0 2 C-2.75 4.1875 -2.75 4.1875 -6 6 C-8.203125 5.61328125 -8.203125 5.61328125 -10 5 C-8.71186658 4.16121545 -7.41936744 3.32913217 -6.125 2.5 C-5.40570313 2.0359375 -4.68640625 1.571875 -3.9453125 1.09375 C-2 0 -2 0 0 0 Z " fill="#0175C1" transform="translate(240,257)"/>
<path d="M0 0 C3.66881155 0.70554068 6.70450534 2.27735506 10 4 C7.07175348 4.97608217 5.04386724 5.08226668 2 5 C1.34 3.35 0.68 1.7 0 0 Z " fill="#207FB4" transform="translate(363,65)"/>
<path d="M0 0 C3.375 0.25 3.375 0.25 7 1 C8.4375 3.0625 8.4375 3.0625 9 5 C5.22454612 3.90931332 2.52956528 3.0916909 0 0 Z " fill="#0E528F" transform="translate(125,467)"/>
<path d="M0 0 C3.3 1.65 6.6 3.3 10 5 C6.37673261 6.2077558 5.35853631 5.54311128 2 4 C2 3.34 2 2.68 2 2 C1.34 2 0.68 2 0 2 C0 1.34 0 0.68 0 0 Z " fill="#D2F0FB" transform="translate(375,341)"/>
<path d="M0 0 C2.56616632 3.84924948 2.55097676 6.4349304 3 11 C2.67 10.34 2.34 9.68 2 9 C1.34 9 0.68 9 0 9 C0 6.03 0 3.06 0 0 Z " fill="#2986C1" transform="translate(63,295)"/>
<path d="M0 0 C0.625 1.875 0.625 1.875 1 4 C-1.1385485 6.1385485 -2.13275314 6.42655063 -5 7 C-3.47793991 4.37098712 -2.15634036 2.15634036 0 0 Z " fill="#2788C2" transform="translate(173,201)"/>
<path d="M0 0 C0.66 0.33 1.32 0.66 2 1 C0.25 3.0625 0.25 3.0625 -2 5 C-4.25 4.75 -4.25 4.75 -6 4 C-3.94766315 1.7522025 -2.99332739 0.9977758 0 0 Z " fill="#1F82C2" transform="translate(356,191)"/>
<path d="M0 0 C0 0.99 0 1.98 0 3 C-6.75 5.125 -6.75 5.125 -9 4 C-2.25 0 -2.25 0 0 0 Z " fill="#23649C" transform="translate(321,417)"/>
<path d="M0 0 C1.65 0 3.3 0 5 0 C5 0.66 5 1.32 5 2 C6.32 2.66 7.64 3.32 9 4 C8.01 4.495 8.01 4.495 7 5 C4.5249829 3.88568235 2.32116581 2.41849022 0 1 C0 0.67 0 0.34 0 0 Z " fill="#2384BD" transform="translate(351,327)"/>
<path d="M0 0 C1.32 0 2.64 0 4 0 C4 0.66 4 1.32 4 2 C4.61875 2.12375 5.2375 2.2475 5.875 2.375 C8 3 8 3 10 5 C9.01 5.495 9.01 5.495 8 6 C6.0546875 5.0390625 6.0546875 5.0390625 3.875 3.625 C3.15054687 3.16351563 2.42609375 2.70203125 1.6796875 2.2265625 C1.12539063 1.82179688 0.57109375 1.41703125 0 1 C0 0.67 0 0.34 0 0 Z " fill="#1F82BC" transform="translate(326,313)"/>
<path d="M0 0 C0.6875 1.6875 0.6875 1.6875 1 4 C-0.3125 6.75 -0.3125 6.75 -2 9 C-2.66 9 -3.32 9 -4 9 C-2.94124926 5.59687262 -1.99097846 2.98646769 0 0 Z " fill="#2686BD" transform="translate(160,219)"/>
<path d="M0 0 C2.91517292 1.07401108 4.77810176 1.77810176 7 4 C5.1875 4.625 5.1875 4.625 3 5 C2.01 4.34 1.02 3.68 0 3 C0 2.01 0 1.02 0 0 Z " fill="#E1F8FC" transform="translate(315,105)"/>
<path d="M0 0 C0.99 0.33 1.98 0.66 3 1 C0.82575883 3.50037734 -0.73045798 4.43628586 -4 5 C-2.25 1.125 -2.25 1.125 0 0 Z " fill="#0F4D87" transform="translate(415,427)"/>
<path d="M0 0 C0.33 0 0.66 0 1 0 C1 1.98 1 3.96 1 6 C-0.65 6.66 -2.3 7.32 -4 8 C-2.68 5.36 -1.36 2.72 0 0 Z " fill="#225E9A" transform="translate(388,351)"/>
<path d="M0 0 C1.32 0.33 2.64 0.66 4 1 C4 1.66 4 2.32 4 3 C4.66 3 5.32 3 6 3 C6.33 3.99 6.66 4.98 7 6 C6.01 6 5.02 6 4 6 C1.8125 3 1.8125 3 0 0 Z " fill="#D8F5FE" transform="translate(303,204)"/>
<path d="M0 0 C3.3 0 6.6 0 10 0 C10.33 0.99 10.66 1.98 11 3 C7.37 2.34 3.74 1.68 0 1 C0 0.67 0 0.34 0 0 Z " fill="#CBECF8" transform="translate(251,175)"/>
<path d="M0 0 C1.32 0.33 2.64 0.66 4 1 C2.35 2.98 0.7 4.96 -1 7 C-1.33 6.34 -1.66 5.68 -2 5 C-1.0625 2.375 -1.0625 2.375 0 0 Z " fill="#2381B5" transform="translate(94,154)"/>
<path d="M0 0 C0.12375 0.5775 0.2475 1.155 0.375 1.75 C1.00648824 4.02335767 1.88858191 5.9253529 3 8 C1.02 6.35 -0.96 4.7 -3 3 C-2.01 2.01 -1.02 1.02 0 0 Z " fill="#137EC5" transform="translate(358,129)"/>
<path d="M0 0 C0.66 0 1.32 0 2 0 C1.375 1.875 1.375 1.875 0 4 C-3.125 5.25 -3.125 5.25 -6 6 C-4 4 -2 2 0 0 Z " fill="#D6F2FC" transform="translate(135,118)"/>
<path d="M0 0 C0 0.66 0 1.32 0 2 C-1.96147874 3.38938077 -3.96166576 4.7260411 -6 6 C-6.66 5.34 -7.32 4.68 -8 4 C-2.25 0 -2.25 0 0 0 Z " fill="#DEF7FE" transform="translate(148,111)"/>
</svg>
